<svg xmlns="http://www.w3.org/2000/svg" version="1.0" preserveAspectRatio="xMidYMid meet" viewBox="189.11 131.9 145.39 203.23">

<g transform="translate(0.000000,500.000000) scale(0.100000,-0.100000)" fill="#0F172A" stroke="none">
<path d="M2005 3657 c-33 -16 -60 -39 -80 -67 l-30 -43 -3 -874 c-2 -845 -2 -874 17 -911 78 -151 264 -151 342 0 16 32 19 59 19 198 0 88 1 160 3 160 1 0 36 -7 77 -16 96 -20 273 -20 369 1 115 24 256 88 334 153 96 78 150 145 206 255 70 138 86 210 86 392 -1 136 -3 157 -27 225 -15 41 -48 115 -74 163 -39 72 -66 106 -141 176 -96 92 -179 143 -295 183 -59 21 -84 22 -408 25 l-345 4 -50 -24z m685 -303 c118 -27 229 -114 285 -223 37 -74 34 -83 -22 -79 -46 3 -47 4 -101 83 -29 44 -66 85 -80 92 -40 18 -362 17 -405 -1 -23 -9 -48 -37 -86 -95 -46 -70 -57 -81 -82 -81 -16 0 -29 2 -29 5 0 2 11 39 25 81 18 55 25 98 25 155 l0 79 201 0 c146 0 219 -4 269 -16z m77 -242 c18 -24 33 -48 33 -53 0 -5 -98 -9 -235 -9 -129 0 -235 3 -235 8 0 4 16 28 36 55 l35 47 166 -2 167 -3 33 -43z m246 -142 c4 0 16 -15 27 -32 18 -30 20 -51 20 -238 0 -177 -2 -209 -17 -230 -23 -34 -33 -40 -67 -40 -44 0 -76 35 -76 82 0 34 3 38 24 38 13 0 31 3 40 6 20 8 21 47 2 63 -9 8 -126 10 -411 9 -366 -3 -399 -4 -409 -20 -15 -24 3 -52 35 -57 31 -4 40 -19 33 -56 -14 -69 -78 -88 -127 -37 -32 33 -32 33 -29 280 l2 184 28 26 27 27 445 -2 c245 -1 448 -2 453 -3z m-201 -442 c2 -13 2 -31 0 -41 -8 -41 -157 -87 -282 -87 -72 1 -184 19 -208 34 -7 4 -12 31 -12 62 l0 54 249 0 249 0 4 -22z"/>
<path d="M2191 2844 c-28 -35 -26 -69 4 -99 28 -29 45 -31 84 -10 48 24 55 72 16 110 -33 34 -77 33 -104 -1z"/>
<path d="M2823 2844 c-20 -20 -24 -31 -19 -57 8 -44 42 -70 81 -63 62 12 84 77 40 121 -31 32 -69 32 -102 -1z"/>
</g>
</svg>